<svg width="771" height="762" viewBox="0 0 771 762" fill="none" xmlns="http://www.w3.org/2000/svg">
<path d="M28.919 344.599C20.139 429.769 41.509 517.669 92.599 586.919C113.769 615.609 138.729 641.629 167.679 662.569C180.086 671.543 192.939 679.833 206.239 687.439C237.752 705.466 271.166 718.443 306.479 726.369C312.866 727.803 319.426 729.016 326.159 730.009C370.579 736.539 418.209 736.329 462.259 726.459C495.552 719.006 526.986 707.403 556.559 691.649C582.646 677.756 605.369 662.013 624.729 644.419C639.116 631.346 652.529 617.346 664.969 602.419C688.239 574.509 706.829 542.439 719.579 508.769C744.539 442.849 750.649 369.269 733.389 300.709C723.479 261.389 707.019 223.569 684.339 189.989C676.912 178.983 671.962 171.899 669.489 168.739C659.809 156.353 646.639 142.109 629.979 126.009C592.649 89.9494 542.839 61.4093 493.269 45.1193C469.419 37.2893 444.389 31.3793 420.769 28.8993C392.949 25.9793 361.429 26.2394 332.529 30.9894C283.749 38.996 238.432 56.0794 196.579 82.2394C185.039 89.4594 176.296 95.2327 170.349 99.5593C152.449 112.569 132.089 131.999 117.829 147.789C89.3756 179.283 67.1723 214.709 51.219 254.069C47.3923 263.503 44.889 270.213 43.709 274.199C36.929 297.049 31.369 320.859 28.919 344.599Z" fill="black" stroke="white" stroke-width="54"/>
<path d="M371.678 398.678C381.441 388.915 381.441 373.085 371.678 363.322L212.579 204.223C202.816 194.46 186.986 194.46 177.223 204.223C167.46 213.986 167.46 229.816 177.223 239.579L318.645 381L177.223 522.421C167.46 532.184 167.46 548.014 177.223 557.777C186.986 567.54 202.816 567.54 212.579 557.777L371.678 398.678ZM54 406H354V356H54V406Z" fill="white"/>
<path d="M400.322 363.322C390.559 373.085 390.559 388.915 400.322 398.678L559.421 557.777C569.184 567.54 585.014 567.54 594.777 557.777C604.54 548.014 604.54 532.184 594.777 522.421L453.355 381L594.777 239.579C604.54 229.816 604.54 213.986 594.777 204.223C585.014 194.46 569.184 194.46 559.421 204.223L400.322 363.322ZM718 356L418 356V406L718 406V356Z" fill="white"/>
</svg>
