<svg width="761" height="761" viewBox="0 0 761 761" fill="none" xmlns="http://www.w3.org/2000/svg">
<path d="M28.8943 344.39C20.227 429.504 41.3228 517.346 91.7572 586.551C112.656 615.222 137.295 641.225 165.874 662.151C178.121 671.118 190.81 679.403 203.939 687.005C235.048 705.019 268.032 717.988 302.893 725.909C309.197 727.341 315.673 728.554 322.32 729.547C366.17 736.072 413.189 735.862 456.674 725.999C489.54 718.55 520.57 706.955 549.764 691.212C575.515 677.328 597.947 661.595 617.059 644.013C631.261 630.948 644.502 616.957 656.782 602.041C679.754 574.149 698.105 542.1 710.692 508.452C735.331 442.576 741.363 369.044 724.324 300.529C714.542 261.235 698.293 223.44 675.904 189.882C668.573 178.883 663.686 171.804 661.244 168.646C651.689 156.268 638.688 142.034 622.241 125.944C585.39 89.9079 536.22 61.3867 487.286 45.1074C463.742 37.2826 439.033 31.3765 415.716 28.8981C388.253 25.98 357.137 26.2399 328.608 30.9867C280.454 38.9881 235.719 56.0602 194.403 82.203C183.011 89.4182 174.38 95.1878 168.509 99.5116C150.839 112.513 130.74 131.93 116.663 147.71C88.5752 179.182 66.6568 214.586 50.9082 253.92C47.1306 263.347 44.6594 270.053 43.4945 274.037C36.8015 296.872 31.3129 320.666 28.8943 344.39Z" fill="black" stroke="white" stroke-width="54"/>
<path d="M367.482 398.445C377.245 388.682 377.245 372.852 367.482 363.089L208.383 203.99C198.619 194.227 182.79 194.227 173.027 203.99C163.264 213.753 163.264 229.583 173.027 239.346L314.449 380.767L173.027 522.188C163.264 531.951 163.264 547.781 173.027 557.544C182.79 567.307 198.619 567.307 208.383 557.544L367.482 398.445ZM53.6536 405.767H349.804V355.767H53.6536V405.767Z" fill="white"/>
<path d="M395.305 363.089C385.542 372.852 385.542 388.682 395.305 398.445L554.404 557.544C564.167 567.307 579.996 567.307 589.759 557.544C599.522 547.781 599.522 531.951 589.759 522.188L448.338 380.767L589.759 239.346C599.522 229.583 599.522 213.753 589.759 203.99C579.996 194.227 564.167 194.227 554.404 203.99L395.305 363.089ZM709.133 355.767L412.982 355.767V405.767L709.133 405.767V355.767Z" fill="white"/>
</svg>
